<svg width="64" height="64" viewBox="0 0 64 64" fill="none" xmlns="http://www.w3.org/2000/svg">
<path d="M3 17.5V10.25C3 8.32718 3.76384 6.48311 5.12348 5.12348C6.48311 3.76384 8.32718 3 10.25 3H17.5M3 46.5V53.75C3 55.6728 3.76384 57.5169 5.12348 58.8765C6.48311 60.2362 8.32718 61 10.25 61H17.5M46.5 3H53.75C55.6728 3 57.5169 3.76384 58.8765 5.12348C60.2362 6.48311 61 8.32718 61 10.25V17.5M46.5 61H53.75C55.6728 61 57.5169 60.2362 58.8765 58.8765C60.2362 57.5169 61 55.6728 61 53.75V46.5M19.6859 23.3362C20.3743 22.6348 21.1956 22.0776 22.1018 21.6972C23.0081 21.3168 23.981 21.1209 24.9639 21.1209C25.9467 21.1209 26.9197 21.3168 27.8259 21.6972C28.7322 22.0776 29.5535 22.6348 30.2419 23.3362L32 24.75L33.8125 23.3145C34.5004 22.6207 35.3193 22.0705 36.2216 21.6958C37.1239 21.3211 38.0916 21.1294 39.0686 21.1317C40.0456 21.1341 41.0124 21.3305 41.9129 21.7096C42.8134 22.0886 43.6296 22.6428 44.3141 23.3399C45.7153 24.7661 46.5004 26.6856 46.5004 28.6849C46.5004 30.6843 45.7153 32.6037 44.3141 34.03L32 46.5L19.6859 34.03C18.2836 32.6036 17.4978 30.6834 17.4978 28.6831C17.4978 26.6829 18.2836 24.7627 19.6859 23.3362V23.3362Z" stroke="white" stroke-width="6" stroke-linecap="round" stroke-linejoin="round"/>
</svg>
