<svg width="80" height="65" viewBox="0 0 80 65" fill="none" xmlns="http://www.w3.org/2000/svg">
<path d="M8 65C5.8 65 3.91733 64.2051 2.352 62.6153C0.784 61.0228 0 59.1094 0 56.875V8.125C0 5.89062 0.784 3.97854 2.352 2.38875C3.91733 0.796249 5.8 0 8 0H72C74.2 0 76.084 0.796249 77.652 2.38875C79.2173 3.97854 80 5.89062 80 8.125V56.875C80 59.1094 79.2173 61.0228 77.652 62.6153C76.084 64.2051 74.2 65 72 65H8ZM40 36.5625L8 16.25V56.875H72V16.25L40 36.5625ZM40 28.4375L72 8.125H8L40 28.4375ZM8 16.25V8.125V56.875V16.25Z" fill="black"/>
</svg>
