<svg width="172" height="173" viewBox="0 0 172 173" fill="none" xmlns="http://www.w3.org/2000/svg">
<path d="M64.5444 63.8615V109.779C64.5444 113.069 66.0464 115.573 69.0503 117.289C72.0543 119.006 74.9867 118.863 77.8477 116.86L113.466 94.1157C116.184 92.3991 117.543 89.9674 117.543 86.8204C117.543 83.6733 116.184 81.2416 113.466 79.525L77.8477 56.7808C74.9867 54.7781 72.0543 54.6351 69.0503 56.3516C66.0464 58.0682 64.5444 60.5715 64.5444 63.8615ZM86.0013 172.648C74.1285 172.648 62.9709 170.393 52.5286 165.885C42.0862 161.382 33.0028 155.268 25.2784 147.543C17.5539 139.819 11.4401 130.735 6.93703 120.293C2.42823 109.851 0.173828 98.6932 0.173828 86.8204C0.173828 74.9476 2.42823 63.79 6.93703 53.3477C11.4401 42.9053 17.5539 33.8219 25.2784 26.0974C33.0028 18.373 42.0862 12.2563 52.5286 7.74754C62.9709 3.24446 74.1285 0.99292 86.0013 0.99292C97.8741 0.99292 109.032 3.24446 119.474 7.74754C129.916 12.2563 139 18.373 146.724 26.0974C154.449 33.8219 160.562 42.9053 165.065 53.3477C169.574 63.79 171.829 74.9476 171.829 86.8204C171.829 98.6932 169.574 109.851 165.065 120.293C160.562 130.735 154.449 139.819 146.724 147.543C139 155.268 129.916 161.382 119.474 165.885C109.032 170.393 97.8741 172.648 86.0013 172.648Z" fill="#1D4999"/>
</svg>
