<svg width="55" height="67" viewBox="0 0 55 67" fill="none" xmlns="http://www.w3.org/2000/svg">
<path d="M21.9473 45.225H32.0723V36.85H40.5098V26.8H32.0723V18.425H21.9473V26.8H13.5098V36.85H21.9473V45.225ZM27.0098 67C19.191 65.0458 12.7369 60.5926 7.64739 53.6402C2.55564 46.6901 0.00976562 38.9717 0.00976562 30.485V10.05L27.0098 0L54.0098 10.05V30.485C54.0098 38.9717 51.465 46.6901 46.3755 53.6402C41.2838 60.5926 34.8285 65.0458 27.0098 67ZM27.0098 59.965C32.8598 58.1225 37.6973 54.4375 41.5223 48.91C45.3473 43.3825 47.2598 37.2408 47.2598 30.485V14.6562L27.0098 7.11875L6.75977 14.6562V30.485C6.75977 37.2408 8.67227 43.3825 12.4973 48.91C16.3223 54.4375 21.1598 58.1225 27.0098 59.965Z" fill="white"/>
</svg>
