<svg width="221" height="26" viewBox="0 0 221 26" fill="none" xmlns="http://www.w3.org/2000/svg">
<g opacity="0.5">
<path d="M25 12.5C25 5.6 19.4 0 12.5 0C5.6 0 0 5.6 0 12.5C0 18.55 4.3 23.5875 10 24.75V16.25H7.5V12.5H10V9.375C10 6.9625 11.9625 5 14.375 5H17.5V8.75H15C14.3125 8.75 13.75 9.3125 13.75 10V12.5H17.5V16.25H13.75V24.9375C20.0625 24.3125 25 18.9875 25 12.5Z" fill="white"/>
<path d="M92 4.48566C91.043 4.92065 90.0115 5.2065 88.9426 5.34321C90.0363 4.68451 90.8815 3.64054 91.2792 2.38528C90.2476 3.00669 89.1042 3.44168 87.8987 3.69025C86.9168 2.62142 85.5373 2 83.9713 2C81.0507 2 78.6644 4.38623 78.6644 7.33174C78.6644 7.7543 78.7142 8.16444 78.8011 8.54971C74.3767 8.326 70.4369 6.20077 67.8145 2.98184C67.3547 3.76482 67.0937 4.68451 67.0937 5.65392C67.0937 7.50574 68.0258 9.14627 69.4675 10.0784C68.5851 10.0784 67.7648 9.82983 67.044 9.45698V9.49426C67.044 12.0794 68.8834 14.2419 71.3193 14.7266C70.5372 14.9406 69.7162 14.9704 68.9207 14.8136C69.2582 15.8731 69.9193 16.8001 70.811 17.4644C71.7027 18.1288 72.7802 18.4969 73.892 18.5172C72.0074 20.0092 69.6713 20.8156 67.2677 20.804C66.8451 20.804 66.4226 20.7792 66 20.7294C68.3614 22.2457 71.1702 23.1281 74.1778 23.1281C83.9713 23.1281 89.3528 15 89.3528 7.95316C89.3528 7.71702 89.3528 7.49331 89.3403 7.25717C90.3843 6.51147 91.2792 5.56692 92 4.48566Z" fill="white"/>
<path d="M133.425 0.111685C133.554 0.0379292 133.7 -0.000587387 133.848 6.77142e-06C133.997 0.00060093 134.143 0.0402849 134.271 0.11507L147.545 7.85782L143.437 11.554L133 2.16119V0.846189C133 0.6972 133.039 0.55082 133.114 0.421847C133.188 0.292874 133.296 0.185881 133.425 0.111685ZM133 4.43916V20.9469L142.173 12.693L133 4.43916ZM133 23.2249V24.5399C133 24.6887 133.039 24.835 133.114 24.9639C133.188 25.0928 133.296 25.1997 133.425 25.2739C133.554 25.348 133.7 25.3868 133.849 25.3863C133.998 25.3858 134.144 25.346 134.273 25.271L147.545 17.5282L143.437 13.832L133 23.2249ZM149.08 16.6329L154.58 13.4241C154.708 13.3496 154.814 13.2429 154.887 13.1146C154.961 12.9864 155 12.841 155 12.693C155 12.5451 154.961 12.3997 154.887 12.2714C154.814 12.1431 154.708 12.0364 154.58 11.9619L149.08 8.7531L144.701 12.693L149.08 16.6329Z" fill="white"/>
<path d="M218.222 0C218.959 0 219.665 0.292658 220.186 0.813592C220.707 1.33453 221 2.04107 221 2.77778V22.2222C221 22.9589 220.707 23.6655 220.186 24.1864C219.665 24.7073 218.959 25 218.222 25H198.778C198.041 25 197.335 24.7073 196.814 24.1864C196.293 23.6655 196 22.9589 196 22.2222V2.77778C196 2.04107 196.293 1.33453 196.814 0.813592C197.335 0.292658 198.041 0 198.778 0H218.222ZM217.528 21.5278V14.1667C217.528 12.9658 217.051 11.8142 216.202 10.965C215.352 10.1159 214.201 9.63889 213 9.63889C211.819 9.63889 210.444 10.3611 209.778 11.4444V9.90278H205.903V21.5278H209.778V14.6806C209.778 13.6111 210.639 12.7361 211.708 12.7361C212.224 12.7361 212.719 12.941 213.083 13.3056C213.448 13.6703 213.653 14.1649 213.653 14.6806V21.5278H217.528ZM201.389 7.72222C202.008 7.72222 202.601 7.47639 203.039 7.03881C203.476 6.60122 203.722 6.00773 203.722 5.38889C203.722 4.09722 202.681 3.04167 201.389 3.04167C200.766 3.04167 200.169 3.28896 199.729 3.72915C199.289 4.16934 199.042 4.76637 199.042 5.38889C199.042 6.68056 200.097 7.72222 201.389 7.72222ZM203.319 21.5278V9.90278H199.472V21.5278H203.319Z" fill="white"/>
</g>
</svg>
