<svg width="58" height="58" viewBox="0 0 58 58" fill="none" xmlns="http://www.w3.org/2000/svg">
<path fill-rule="evenodd" clip-rule="evenodd" d="M13.5865 44.2121C12.6145 44.8076 11.8842 45.7274 11.5247 46.8091C11.1651 47.8908 11.1995 49.0648 11.6216 50.1236C12.0438 51.1824 12.8266 52.058 13.8317 52.5956C14.8369 53.1332 15.9997 53.2983 17.1148 53.0616C18.2298 52.8249 19.2254 52.2018 19.9255 51.3022C20.6256 50.4027 20.9853 49.2847 20.941 48.1456C20.8966 47.0066 20.4511 45.9199 19.6832 45.0775C18.9153 44.2351 17.8744 43.6912 16.7443 43.5419C16.6839 43.3257 16.6286 43.1081 16.5783 42.8894C16.358 41.894 16.186 40.8886 16.0628 39.8766C15.9297 38.8538 15.8544 37.8243 15.8372 36.7929C15.8339 36.5097 15.8419 36.2265 15.8614 35.9439C16.4801 35.7667 17.1019 35.6056 17.7222 35.4654C18.4327 35.3043 18.8548 36.1421 19.1948 36.8219L19.3333 37.0942H38.2623C38.6312 36.395 39.4674 35.2801 40.2778 35.4654C41.1413 35.6619 42.0097 35.8956 42.8701 36.163L42.8652 36.1646C42.862 36.1614 42.862 36.1614 42.8652 36.1678C42.8717 36.1904 42.9071 36.2967 42.9426 36.5223C42.9828 36.7833 43.0102 37.1216 43.0231 37.5292C43.0457 38.3412 42.9989 39.3288 42.9039 40.3245C42.8072 41.3186 42.6638 42.2804 42.5027 43.0392C42.4673 43.2084 42.4318 43.3614 42.3964 43.5H40.2778C39.9787 43.5002 39.6855 43.5836 39.4311 43.7409C39.1767 43.8983 38.9712 44.1234 38.8374 44.3909L37.2263 47.6132C37.1142 47.8367 37.0558 48.0833 37.0556 48.3333V51.5556C37.0556 51.9828 37.2253 52.3926 37.5274 52.6948C37.8296 52.9969 38.2394 53.1667 38.6667 53.1667H41.8889V49.9444H40.2778V48.7136L41.2734 46.7222H45.7266L46.7222 48.7136V49.9444H45.1111V53.1667H48.3333C48.7606 53.1667 49.1704 52.9969 49.4726 52.6948C49.7747 52.3926 49.9444 51.9828 49.9444 51.5556V48.3333C49.9442 48.0833 49.8858 47.8367 49.7737 47.6132L48.1626 44.3909C48.0289 44.1234 47.8233 43.8983 47.5689 43.7409C47.3145 43.5836 47.0213 43.5002 46.7222 43.5H45.6976C45.8699 42.6413 46.0133 41.6392 46.11 40.6338C46.2163 39.5479 46.2711 38.4218 46.2437 37.439L46.2421 37.3939C52.6672 40.1086 58 44.573 58 49.2517V58H0V49.2517C0 44.3668 5.81611 39.7139 12.6166 37.0443C12.6343 38.0464 12.7294 39.179 12.8663 40.2762C13.0146 41.4603 13.2159 42.6381 13.4383 43.6079C13.4866 43.8158 13.5349 44.0172 13.5865 44.2121ZM16.1111 49.9686C16.9779 49.9686 17.7222 49.2597 17.7222 48.3333C17.7222 47.4086 16.9779 46.6981 16.1111 46.6981C15.2443 46.6981 14.5 47.4069 14.5 48.3333C14.5 49.2581 15.2443 49.9686 16.1111 49.9686ZM29 29C32.4183 29 35.6967 27.6421 38.1138 25.2249C40.531 22.8078 41.8889 19.5295 41.8889 16.1111C41.8889 12.6928 40.531 9.41443 38.1138 6.99729C35.6967 4.58015 32.4183 3.22222 29 3.22222C25.5817 3.22222 22.3033 4.58015 19.8862 6.99729C17.469 9.41443 16.1111 12.6928 16.1111 16.1111C16.1111 19.5295 17.469 22.8078 19.8862 25.2249C22.3033 27.6421 25.5817 29 29 29ZM29 32.2222C37.8982 32.2222 45.1111 25.0093 45.1111 16.1111C45.1111 7.21294 37.8982 0 29 0C20.1018 0 12.8889 7.21294 12.8889 16.1111C12.8889 25.0093 20.1018 32.2222 29 32.2222Z" fill="white"/>
</svg>
